<svg width="224" height="84" viewBox="0 0 224 84" fill="none" xmlns="http://www.w3.org/2000/svg">
<path d="M63 30.1875C58.5931 30.1846 54.3575 31.8943 51.1875 34.9558C48.7774 32.6352 45.7379 31.075 42.4475 30.4695C39.157 29.864 35.7612 30.24 32.6829 31.5506C29.6046 32.8613 26.98 35.0486 25.136 37.8403C23.292 40.6319 22.31 43.9043 22.3125 47.25C22.3125 63 46.935 77.9192 51.1875 77.9192C55.44 77.9192 80.0625 63 80.0625 47.25C80.0625 42.7247 78.2649 38.3848 75.065 35.185C71.8652 31.9852 67.5253 30.1875 63 30.1875V30.1875Z" fill="#EC455A"/>
<path d="M35.4375 10.5H11.8125C10.3628 10.5 9.1875 11.6753 9.1875 13.125V53.8125C9.1875 55.2622 10.3628 56.4375 11.8125 56.4375H35.4375C36.8872 56.4375 38.0625 55.2622 38.0625 53.8125V13.125C38.0625 11.6753 36.8872 10.5 35.4375 10.5Z" fill="#E9E9EA"/>
<path d="M14.4375 15.75H32.8125V48.5625H14.4375V15.75Z" fill="#2488FF"/>
<path d="M23.625 31.5C25.7996 31.5 27.5625 29.7371 27.5625 27.5625C27.5625 25.3879 25.7996 23.625 23.625 23.625C21.4504 23.625 19.6875 25.3879 19.6875 27.5625C19.6875 29.7371 21.4504 31.5 23.625 31.5Z" fill="#FF9811"/>
<path d="M19.6875 80.0625L17.2528 60.1125C17.1298 59.4439 17.2709 58.7537 17.6466 58.1871L18.5811 56.7853C19.3026 55.7057 19.6877 54.4364 19.6875 53.1379V52.5932C19.6875 50.853 18.9963 49.1841 17.766 47.9535L17.0625 47.25L20.0445 42.2796C20.3175 41.825 20.4307 41.2921 20.366 40.7658C20.3013 40.2395 20.0625 39.7499 19.6875 39.375C19.3125 39 18.823 38.7612 18.2967 38.6965C17.7704 38.6318 17.2375 38.745 16.7829 39.018L12.6919 41.475C12.4409 41.6258 12.1467 41.6883 11.856 41.6526C11.5654 41.617 11.2951 41.4851 11.088 41.2781L9.57206 39.7596C9.3259 39.5135 9.18757 39.1797 9.1875 38.8316V23.625L4.12519 36.2801C4.00164 36.5904 3.93795 36.9213 3.9375 37.2553V50.7504C3.9375 51.8864 4.30593 52.9917 4.9875 53.9004L5.85375 55.0541C6.49225 55.9063 6.95146 56.8789 7.20366 57.9135C7.45586 58.948 7.49582 60.0229 7.32112 61.0733L5.25 80.0625H19.6875Z" fill="#FFCBBE"/>
<path d="M57.2066 21.7691C56.8394 22.1362 56.5893 22.6039 56.488 23.1131C56.3866 23.6224 56.4386 24.1502 56.6372 24.6299C56.8359 25.1096 57.1724 25.5196 57.604 25.8081C58.0357 26.0966 58.5433 26.2505 59.0625 26.2505C59.5817 26.2505 60.0893 26.0966 60.521 25.8081C60.9526 25.5196 61.2891 25.1096 61.4878 24.6299C61.6864 24.1502 61.7384 23.6224 61.637 23.1131C61.5357 22.6039 61.2856 22.1362 60.9184 21.7691C60.4261 21.277 59.7586 21.0005 59.0625 21.0005C58.3664 21.0005 57.6989 21.277 57.2066 21.7691Z" fill="#FF9811"/>
<path d="M64.6314 18.0561C63.1533 16.5812 61.1505 15.7529 59.0625 15.7529C56.9744 15.7529 54.9716 16.5812 53.4935 18.0561L55.3494 19.9119C56.3352 18.9292 57.6705 18.3773 59.0625 18.3773C60.4545 18.3773 61.7897 18.9292 62.7755 19.9119L64.6314 18.0561Z" fill="#FF9811"/>
<path d="M68.3432 14.3443C65.8818 11.883 62.5434 10.5002 59.0625 10.5002C55.5816 10.5002 52.2432 11.883 49.7818 14.3443L51.6377 16.2002C52.6127 15.2251 53.7702 14.4516 55.0442 13.9239C56.3181 13.3962 57.6836 13.1246 59.0625 13.1246C60.4414 13.1246 61.8068 13.3962 63.0808 13.9239C64.3547 14.4516 65.5123 15.2251 66.4873 16.2002L68.3432 14.3443Z" fill="#FF9811"/>
<path d="M70.199 12.4884L72.0562 10.6312C68.6078 7.18936 63.9347 5.25627 59.0625 5.25627C54.1903 5.25627 49.5171 7.18936 46.0687 10.6312L47.9246 12.4871C50.8807 9.5376 54.8862 7.88123 59.0621 7.88148C63.238 7.88173 67.2433 9.53856 70.199 12.4884V12.4884Z" fill="#FF9811"/>
<path d="M52.5 72.1875C52.2244 72.1876 51.9558 72.1009 51.7323 71.9398C51.5087 71.7786 51.3415 71.5512 51.2544 71.2898L45.7629 54.8126L41.8871 63.5329C41.784 63.765 41.6158 63.9621 41.4029 64.1005C41.1899 64.2389 40.9414 64.3125 40.6875 64.3125H22.3125V61.6875H39.8344L44.7379 50.6546C44.8488 50.4153 45.0276 50.2138 45.2521 50.0752C45.4766 49.9366 45.7368 49.867 46.0005 49.875C46.2648 49.8879 46.5191 49.9804 46.7299 50.1404C46.9407 50.3004 47.0982 50.5204 47.1818 50.7714L52.3189 66.1828L57.7894 44.3061C57.8631 44.0109 58.0371 43.7505 58.2816 43.5695C58.526 43.3884 58.8258 43.2979 59.1296 43.3134C59.4334 43.3289 59.7225 43.4494 59.9472 43.6545C60.172 43.8595 60.3186 44.1362 60.3619 44.4373L62.8254 61.6875H80.0625V64.3125H61.6875C61.3717 64.3125 61.0664 64.1987 60.8277 63.9918C60.5891 63.785 60.433 63.499 60.3881 63.1864L58.7107 51.45L53.7731 71.1939C53.7041 71.4692 53.5477 71.7147 53.3274 71.8936C53.1071 72.0725 52.8348 72.1751 52.5512 72.1862L52.5 72.1875Z" fill="#85D5E3"/>
<path d="M95.99 35C95.53 35 95.13 34.83 94.79 34.49C94.45 34.15 94.28 33.75 94.28 33.29V14.81C94.28 14.35 94.45 13.95 94.79 13.61C95.13 13.27 95.53 13.1 95.99 13.1H97.85C98.31 13.1 98.7 13.27 99.02 13.61C99.36 13.95 99.53 14.35 99.53 14.81V30.53C99.53 30.69 99.62 30.77 99.8 30.77H107.09C107.55 30.77 107.95 30.94 108.29 31.28C108.63 31.62 108.8 32.02 108.8 32.48V33.29C108.8 33.75 108.63 34.15 108.29 34.49C107.95 34.83 107.55 35 107.09 35H95.99ZM119.377 27.86C116.937 27.86 115.717 28.61 115.717 30.11C115.717 30.65 115.877 31.08 116.197 31.4C116.517 31.7 116.947 31.85 117.487 31.85C118.447 31.85 119.227 31.55 119.827 30.95C120.427 30.33 120.727 29.51 120.727 28.49V28.13C120.727 27.95 120.637 27.86 120.457 27.86H119.377ZM116.017 35.3C114.637 35.3 113.497 34.86 112.597 33.98C111.717 33.08 111.277 31.92 111.277 30.5C111.277 26.86 113.977 25.04 119.377 25.04H120.457C120.637 25.04 120.727 24.96 120.727 24.8V24.65C120.727 23.89 120.527 23.34 120.127 23C119.747 22.66 119.097 22.49 118.177 22.49C116.957 22.49 115.497 22.68 113.797 23.06C113.377 23.14 112.997 23.05 112.657 22.79C112.337 22.53 112.177 22.19 112.177 21.77V21.71C112.177 21.21 112.327 20.76 112.627 20.36C112.947 19.94 113.347 19.69 113.827 19.61C115.587 19.27 117.107 19.1 118.387 19.1C121.007 19.1 122.857 19.57 123.937 20.51C125.037 21.45 125.587 23.01 125.587 25.19V33.29C125.587 33.75 125.417 34.15 125.077 34.49C124.737 34.83 124.337 35 123.877 35H122.767C122.287 35 121.877 34.84 121.537 34.52C121.197 34.18 121.017 33.77 120.997 33.29V32.96C120.997 32.94 120.987 32.93 120.967 32.93C120.927 32.93 120.907 32.94 120.907 32.96C119.647 34.52 118.017 35.3 116.017 35.3ZM132.662 34.76L127.592 20.99C127.432 20.61 127.472 20.25 127.712 19.91C127.952 19.57 128.282 19.4 128.702 19.4H130.592C131.072 19.4 131.512 19.56 131.912 19.88C132.312 20.18 132.572 20.57 132.692 21.05L134.972 30.38C134.972 30.4 134.982 30.41 135.002 30.41C135.022 30.41 135.032 30.4 135.032 30.38L137.762 21.02C137.882 20.54 138.142 20.15 138.542 19.85C138.962 19.55 139.432 19.4 139.952 19.4H141.602C142.002 19.4 142.322 19.57 142.562 19.91C142.802 20.25 142.852 20.61 142.712 20.99L135.632 40.01C135.452 40.49 135.152 40.87 134.732 41.15C134.312 41.45 133.852 41.6 133.352 41.6H131.702C131.282 41.6 130.962 41.43 130.742 41.09C130.522 40.77 130.492 40.42 130.652 40.04L132.662 35.24C132.682 35.16 132.692 35.08 132.692 35C132.692 34.92 132.682 34.84 132.662 34.76ZM152.072 27.86C149.632 27.86 148.412 28.61 148.412 30.11C148.412 30.65 148.572 31.08 148.892 31.4C149.212 31.7 149.642 31.85 150.182 31.85C151.142 31.85 151.922 31.55 152.522 30.95C153.122 30.33 153.422 29.51 153.422 28.49V28.13C153.422 27.95 153.332 27.86 153.152 27.86H152.072ZM148.712 35.3C147.332 35.3 146.192 34.86 145.292 33.98C144.412 33.08 143.972 31.92 143.972 30.5C143.972 26.86 146.672 25.04 152.072 25.04H153.152C153.332 25.04 153.422 24.96 153.422 24.8V24.65C153.422 23.89 153.222 23.34 152.822 23C152.442 22.66 151.792 22.49 150.872 22.49C149.652 22.49 148.192 22.68 146.492 23.06C146.072 23.14 145.692 23.05 145.352 22.79C145.032 22.53 144.872 22.19 144.872 21.77V21.71C144.872 21.21 145.022 20.76 145.322 20.36C145.642 19.94 146.042 19.69 146.522 19.61C148.282 19.27 149.802 19.1 151.082 19.1C153.702 19.1 155.552 19.57 156.632 20.51C157.732 21.45 158.282 23.01 158.282 25.19V33.29C158.282 33.75 158.112 34.15 157.772 34.49C157.432 34.83 157.032 35 156.572 35H155.462C154.982 35 154.572 34.84 154.232 34.52C153.892 34.18 153.712 33.77 153.692 33.29V32.96C153.692 32.94 153.682 32.93 153.662 32.93C153.622 32.93 153.602 32.94 153.602 32.96C152.342 34.52 150.712 35.3 148.712 35.3ZM163.775 35C163.315 35 162.915 34.83 162.575 34.49C162.255 34.15 162.095 33.75 162.095 33.29V21.11C162.095 20.65 162.255 20.25 162.575 19.91C162.915 19.57 163.315 19.4 163.775 19.4H165.005C165.485 19.4 165.885 19.57 166.205 19.91C166.545 20.23 166.725 20.63 166.745 21.11L166.775 21.35C166.775 21.37 166.785 21.38 166.805 21.38L166.865 21.32C168.165 19.84 169.725 19.1 171.545 19.1C173.365 19.1 174.675 19.62 175.475 20.66C176.275 21.68 176.675 23.43 176.675 25.91V33.29C176.675 33.75 176.505 34.15 176.165 34.49C175.845 34.83 175.455 35 174.995 35H173.675C173.215 35 172.815 34.83 172.475 34.49C172.135 34.15 171.965 33.75 171.965 33.29V26.06C171.965 24.86 171.805 24.04 171.485 23.6C171.165 23.14 170.585 22.91 169.745 22.91C169.045 22.91 168.395 23.2 167.795 23.78C167.215 24.34 166.925 24.95 166.925 25.61V33.29C166.925 33.75 166.755 34.15 166.415 34.49C166.095 34.83 165.705 35 165.245 35H163.775ZM187.844 27.86C185.404 27.86 184.184 28.61 184.184 30.11C184.184 30.65 184.344 31.08 184.664 31.4C184.984 31.7 185.414 31.85 185.954 31.85C186.914 31.85 187.694 31.55 188.294 30.95C188.894 30.33 189.194 29.51 189.194 28.49V28.13C189.194 27.95 189.104 27.86 188.924 27.86H187.844ZM184.484 35.3C183.104 35.3 181.964 34.86 181.064 33.98C180.184 33.08 179.744 31.92 179.744 30.5C179.744 26.86 182.444 25.04 187.844 25.04H188.924C189.104 25.04 189.194 24.96 189.194 24.8V24.65C189.194 23.89 188.994 23.34 188.594 23C188.214 22.66 187.564 22.49 186.644 22.49C185.424 22.49 183.964 22.68 182.264 23.06C181.844 23.14 181.464 23.05 181.124 22.79C180.804 22.53 180.644 22.19 180.644 21.77V21.71C180.644 21.21 180.794 20.76 181.094 20.36C181.414 19.94 181.814 19.69 182.294 19.61C184.054 19.27 185.574 19.1 186.854 19.1C189.474 19.1 191.324 19.57 192.404 20.51C193.504 21.45 194.054 23.01 194.054 25.19V33.29C194.054 33.75 193.884 34.15 193.544 34.49C193.204 34.83 192.804 35 192.344 35H191.234C190.754 35 190.344 34.84 190.004 34.52C189.664 34.18 189.484 33.77 189.464 33.29V32.96C189.464 32.94 189.454 32.93 189.434 32.93C189.394 32.93 189.374 32.94 189.374 32.96C188.114 34.52 186.484 35.3 184.484 35.3ZM199.547 35C199.087 35 198.687 34.83 198.347 34.49C198.027 34.15 197.867 33.75 197.867 33.29V21.11C197.867 20.65 198.027 20.25 198.347 19.91C198.687 19.57 199.087 19.4 199.547 19.4H200.777C201.257 19.4 201.657 19.57 201.977 19.91C202.317 20.23 202.497 20.63 202.517 21.11L202.547 21.35C202.547 21.37 202.557 21.38 202.577 21.38L202.637 21.32C203.937 19.84 205.497 19.1 207.317 19.1C209.137 19.1 210.447 19.62 211.247 20.66C212.047 21.68 212.447 23.43 212.447 25.91V33.29C212.447 33.75 212.277 34.15 211.937 34.49C211.617 34.83 211.227 35 210.767 35H209.447C208.987 35 208.587 34.83 208.247 34.49C207.907 34.15 207.737 33.75 207.737 33.29V26.06C207.737 24.86 207.577 24.04 207.257 23.6C206.937 23.14 206.357 22.91 205.517 22.91C204.817 22.91 204.167 23.2 203.567 23.78C202.987 24.34 202.697 24.95 202.697 25.61V33.29C202.697 33.75 202.527 34.15 202.187 34.49C201.867 34.83 201.477 35 201.017 35H199.547Z" fill="#34495E"/>
<path d="M95.99 71C95.53 71 95.13 70.83 94.79 70.49C94.45 70.15 94.28 69.75 94.28 69.29V50.81C94.28 50.35 94.45 49.95 94.79 49.61C95.13 49.27 95.53 49.1 95.99 49.1H97.7C98.22 49.1 98.69 49.24 99.11 49.52C99.53 49.8 99.84 50.18 100.04 50.66L104.69 61.97C104.69 61.99 104.7 62 104.72 62C104.74 62 104.75 61.99 104.75 61.97L109.4 50.66C109.6 50.18 109.91 49.8 110.33 49.52C110.75 49.24 111.22 49.1 111.74 49.1H113.57C114.03 49.1 114.43 49.27 114.77 49.61C115.11 49.95 115.28 50.35 115.28 50.81V69.29C115.28 69.75 115.11 70.15 114.77 70.49C114.43 70.83 114.03 71 113.57 71H112.13C111.67 71 111.27 70.83 110.93 70.49C110.61 70.15 110.45 69.75 110.45 69.29V57.62C110.45 57.6 110.44 57.59 110.42 57.59C110.38 57.59 110.36 57.6 110.36 57.62L107.48 64.43C107.28 64.91 106.96 65.29 106.52 65.57C106.1 65.85 105.63 65.99 105.11 65.99H104.33C103.81 65.99 103.33 65.85 102.89 65.57C102.47 65.29 102.16 64.91 101.96 64.43L99.08 57.62C99.08 57.6 99.06 57.59 99.02 57.59C99 57.59 98.99 57.6 98.99 57.62V69.29C98.99 69.75 98.82 70.15 98.48 70.49C98.16 70.83 97.77 71 97.31 71H95.99ZM126.877 63.86C124.437 63.86 123.217 64.61 123.217 66.11C123.217 66.65 123.377 67.08 123.697 67.4C124.017 67.7 124.447 67.85 124.987 67.85C125.947 67.85 126.727 67.55 127.327 66.95C127.927 66.33 128.227 65.51 128.227 64.49V64.13C128.227 63.95 128.137 63.86 127.957 63.86H126.877ZM123.517 71.3C122.137 71.3 120.997 70.86 120.097 69.98C119.217 69.08 118.777 67.92 118.777 66.5C118.777 62.86 121.477 61.04 126.877 61.04H127.957C128.137 61.04 128.227 60.96 128.227 60.8V60.65C128.227 59.89 128.027 59.34 127.627 59C127.247 58.66 126.597 58.49 125.677 58.49C124.457 58.49 122.997 58.68 121.297 59.06C120.877 59.14 120.497 59.05 120.157 58.79C119.837 58.53 119.677 58.19 119.677 57.77V57.71C119.677 57.21 119.827 56.76 120.127 56.36C120.447 55.94 120.847 55.69 121.327 55.61C123.087 55.27 124.607 55.1 125.887 55.1C128.507 55.1 130.357 55.57 131.437 56.51C132.537 57.45 133.087 59.01 133.087 61.19V69.29C133.087 69.75 132.917 70.15 132.577 70.49C132.237 70.83 131.837 71 131.377 71H130.267C129.787 71 129.377 70.84 129.037 70.52C128.697 70.18 128.517 69.77 128.497 69.29V68.96C128.497 68.94 128.487 68.93 128.467 68.93C128.427 68.93 128.407 68.94 128.407 68.96C127.147 70.52 125.517 71.3 123.517 71.3ZM138.58 71C138.12 71 137.72 70.83 137.38 70.49C137.06 70.15 136.9 69.75 136.9 69.29V57.11C136.9 56.65 137.06 56.25 137.38 55.91C137.72 55.57 138.12 55.4 138.58 55.4H139.81C140.29 55.4 140.69 55.57 141.01 55.91C141.35 56.23 141.53 56.63 141.55 57.11L141.58 57.35C141.58 57.37 141.59 57.38 141.61 57.38L141.67 57.32C142.97 55.84 144.53 55.1 146.35 55.1C148.17 55.1 149.48 55.62 150.28 56.66C151.08 57.68 151.48 59.43 151.48 61.91V69.29C151.48 69.75 151.31 70.15 150.97 70.49C150.65 70.83 150.26 71 149.8 71H148.48C148.02 71 147.62 70.83 147.28 70.49C146.94 70.15 146.77 69.75 146.77 69.29V62.06C146.77 60.86 146.61 60.04 146.29 59.6C145.97 59.14 145.39 58.91 144.55 58.91C143.85 58.91 143.2 59.2 142.6 59.78C142.02 60.34 141.73 60.95 141.73 61.61V69.29C141.73 69.75 141.56 70.15 141.22 70.49C140.9 70.83 140.51 71 140.05 71H138.58ZM162.138 58.7C160.138 58.7 159.138 60.2 159.138 63.2C159.138 64.72 159.408 65.85 159.948 66.59C160.488 67.33 161.218 67.7 162.138 67.7C162.938 67.7 163.638 67.43 164.238 66.89C164.838 66.35 165.138 65.74 165.138 65.06V61.34C165.138 60.66 164.838 60.05 164.238 59.51C163.638 58.97 162.938 58.7 162.138 58.7ZM160.488 71.3C158.708 71.3 157.248 70.59 156.108 69.17C154.968 67.73 154.398 65.74 154.398 63.2C154.398 60.6 154.948 58.6 156.048 57.2C157.148 55.8 158.628 55.1 160.488 55.1C162.128 55.1 163.618 55.71 164.958 56.93C164.978 56.95 164.998 56.96 165.018 56.96C165.038 56.96 165.048 56.95 165.048 56.93V50.21C165.048 49.75 165.208 49.35 165.528 49.01C165.868 48.67 166.268 48.5 166.728 48.5H168.198C168.658 48.5 169.048 48.67 169.368 49.01C169.708 49.35 169.878 49.75 169.878 50.21V69.29C169.878 69.75 169.708 70.15 169.368 70.49C169.048 70.83 168.658 71 168.198 71H167.058C166.578 71 166.168 70.84 165.828 70.52C165.508 70.18 165.338 69.77 165.318 69.29V69.05C165.318 69.03 165.308 69.02 165.288 69.02L165.228 69.08C163.968 70.56 162.388 71.3 160.488 71.3ZM176.45 71C175.99 71 175.59 70.83 175.25 70.49C174.91 70.15 174.74 69.75 174.74 69.29V57.11C174.74 56.65 174.91 56.25 175.25 55.91C175.59 55.57 175.99 55.4 176.45 55.4H178.13C178.59 55.4 178.99 55.57 179.33 55.91C179.67 56.25 179.84 56.65 179.84 57.11V69.29C179.84 69.75 179.67 70.15 179.33 70.49C178.99 70.83 178.59 71 178.13 71H176.45ZM176.45 52.4C175.99 52.4 175.59 52.23 175.25 51.89C174.91 51.55 174.74 51.15 174.74 50.69V50.21C174.74 49.75 174.91 49.35 175.25 49.01C175.59 48.67 175.99 48.5 176.45 48.5H178.13C178.59 48.5 178.99 48.67 179.33 49.01C179.67 49.35 179.84 49.75 179.84 50.21V50.69C179.84 51.15 179.67 51.55 179.33 51.89C178.99 52.23 178.59 52.4 178.13 52.4H176.45ZM186.217 71C185.757 71 185.357 70.83 185.017 70.49C184.697 70.15 184.537 69.75 184.537 69.29V57.11C184.537 56.65 184.697 56.25 185.017 55.91C185.357 55.57 185.757 55.4 186.217 55.4H187.687C188.147 55.4 188.537 55.57 188.857 55.91C189.197 56.25 189.367 56.65 189.367 57.11V58.37C189.367 58.39 189.377 58.4 189.397 58.4C189.437 58.4 189.457 58.39 189.457 58.37C190.697 56.71 192.427 55.74 194.647 55.46C195.107 55.4 195.497 55.54 195.817 55.88C196.157 56.22 196.327 56.63 196.327 57.11V57.35C196.327 57.81 196.157 58.21 195.817 58.55C195.497 58.89 195.097 59.08 194.617 59.12C192.997 59.3 191.737 59.86 190.837 60.8C189.957 61.72 189.517 62.92 189.517 64.4V69.29C189.517 69.75 189.347 70.15 189.007 70.49C188.687 70.83 188.297 71 187.837 71H186.217ZM202.143 71C201.683 71 201.283 70.83 200.943 70.49C200.603 70.15 200.433 69.75 200.433 69.29V57.11C200.433 56.65 200.603 56.25 200.943 55.91C201.283 55.57 201.683 55.4 202.143 55.4H203.823C204.283 55.4 204.683 55.57 205.023 55.91C205.363 56.25 205.533 56.65 205.533 57.11V69.29C205.533 69.75 205.363 70.15 205.023 70.49C204.683 70.83 204.283 71 203.823 71H202.143ZM202.143 52.4C201.683 52.4 201.283 52.23 200.943 51.89C200.603 51.55 200.433 51.15 200.433 50.69V50.21C200.433 49.75 200.603 49.35 200.943 49.01C201.283 48.67 201.683 48.5 202.143 48.5H203.823C204.283 48.5 204.683 48.67 205.023 49.01C205.363 49.35 205.533 49.75 205.533 50.21V50.69C205.533 51.15 205.363 51.55 205.023 51.89C204.683 52.23 204.283 52.4 203.823 52.4H202.143Z" fill="#EC455A"/>
</svg>
